<?xml version="1.0" encoding="utf-8"?><svg xml:space="preserve" viewBox="0 0 100 100" y="0" x="0" xmlns="http://www.w3.org/2000/svg" id="圖層_1" version="1.1" width="200px" height="200px" xmlns:xlink="http://www.w3.org/1999/xlink" style="width:100%;height:100%;background-size:initial;background-repeat-y:initial;background-repeat-x:initial;background-position-y:initial;background-position-x:initial;background-origin:initial;background-color:initial;background-clip:initial;background-attachment:initial;animation-play-state:paused" ><g class="ldl-scale" style="transform-origin:50% 50%;transform:rotate(0deg) scale(0.8, 0.8);animation-play-state:paused" ><path fill="#849b87" d="M91.982 14.521a2.54 2.54 0 0 0-3.473-.544C78.087 21.31 68.232 29.585 59.221 38.8a201.7 201.7 0 0 0-18.366 21.638 2.533 2.533 0 0 1-3.931.203c-2.356-2.607-4.903-5.026-7.638-7.188-5.541-4.41-11.757-7.741-18.184-10.049a2.543 2.543 0 0 0-3.21 1.406l-.193.461c-.487 1.163-.054 2.524 1.038 3.153 5.472 3.153 10.353 7.072 14.35 11.642 4.476 5.087 7.849 10.943 10.274 17.171l2.97 7.628c.794 2.04 3.628 2.181 4.621.229l3.836-7.546c5.881-11.57 12.93-22.599 21.099-32.843 7.672-9.635 16.326-18.568 25.734-26.734a2.53 2.53 0 0 0 .361-3.45z" style="fill:rgb(88, 171, 99);animation-play-state:paused" ></path>
<metadata xmlns:d="https://loading.io/stock/" style="animation-play-state:paused" ><d:name style="animation-play-state:paused" >check</d:name>
<d:tags style="animation-play-state:paused" >ok,ready,success,pass,complete,finish,done,check,form</d:tags>
<d:license style="animation-play-state:paused" >free</d:license>
<d:slug style="animation-play-state:paused" >2iqi5z</d:slug></metadata></g><!-- generated by https://loading.io/ --></svg>